<svg width="214" height="214" viewBox="0 0 214 214" fill="none" xmlns="http://www.w3.org/2000/svg">
<g filter="url(#filter0_d_83_786)">
<rect x="40" y="20" width="134" height="134" rx="40" fill="url(#paint0_linear_83_786)"/>
<rect x="41.5" y="21.5" width="131" height="131" rx="38.5" stroke="#FC4F02" stroke-width="3"/>
</g>
<g clip-path="url(#clip0_83_786)">
<path d="M103.267 100.987L81.9275 113.658L64 103.572V77.4727L79.9053 86.9951L80.6345 87.4324L103.267 100.987Z" fill="white"/>
<path d="M147.532 100.434V127.845L126.62 115.31L125.998 114.941L126.62 115.31L105.591 127.32L104.395 128V100.657L125.531 88.1029" fill="white"/>
<path d="M149 72.7892L125.998 86.451L125.735 86.6065L125.531 86.7231L102.606 72.9932H102.597L80.6345 85.5376V58.7776L103.005 46L126.202 59.5063L149 72.7892Z" fill="white"/>
</g>
<defs>
<filter id="filter0_d_83_786" x="0" y="0" width="214" height="214" filterUnits="userSpaceOnUse" color-interpolation-filters="sRGB">
<feFlood flood-opacity="0" result="BackgroundImageFix"/>
<feColorMatrix in="SourceAlpha" type="matrix" values="0 0 0 0 0 0 0 0 0 0 0 0 0 0 0 0 0 0 127 0" result="hardAlpha"/>
<feOffset dy="20"/>
<feGaussianBlur stdDeviation="20"/>
<feComposite in2="hardAlpha" operator="out"/>
<feColorMatrix type="matrix" values="0 0 0 0 0.299679 0 0 0 0 0.279349 0 0 0 0 0.242529 0 0 0 0.35 0"/>
<feBlend mode="normal" in2="BackgroundImageFix" result="effect1_dropShadow_83_786"/>
<feBlend mode="normal" in="SourceGraphic" in2="effect1_dropShadow_83_786" result="shape"/>
</filter>
<linearGradient id="paint0_linear_83_786" x1="174" y1="87" x2="40" y2="87" gradientUnits="userSpaceOnUse">
<stop stop-color="#FDA300"/>
<stop offset="1" stop-color="#FC4F02"/>
</linearGradient>
<clipPath id="clip0_83_786">
<rect width="85" height="82" fill="white" transform="translate(64 46)"/>
</clipPath>
</defs>
</svg>
