<svg xmlns="http://www.w3.org/2000/svg" width="320" height="220" viewBox="0 0 320 220">
  <ellipse cx="160" cy="205" rx="120" ry="8" fill="#fbd5b5" opacity="0.5"/>
  <rect x="14" y="55" width="84" height="140" rx="10" fill="#ffffff" stroke="#fed7aa" stroke-width="2"/>
  <rect x="28" y="68" width="44" height="6" rx="3" fill="#fed7aa"/>
  <rect x="28" y="84" width="56" height="16" rx="3" fill="#fbd5b5"/>
  <rect x="28" y="112" width="60" height="3" rx="1.5" fill="#fbd5b5"/>
  <rect x="28" y="122" width="50" height="3" rx="1.5" fill="#fbd5b5"/>
  <rect x="28" y="132" width="56" height="3" rx="1.5" fill="#fbd5b5"/>
  <rect x="28" y="142" width="44" height="3" rx="1.5" fill="#fbd5b5"/>
  <rect x="28" y="168" width="56" height="18" rx="6" fill="#fed7aa"/>
  <rect x="113" y="32" width="94" height="180" rx="12" fill="#ffffff" stroke="#fc4f02" stroke-width="3"/>
  <g transform="translate(140, 14)">
    <polygon points="20,0 25,12 38,13 28,22 31,35 20,28 9,35 12,22 2,13 15,12" fill="#fda300"/>
  </g>
  <rect x="130" y="56" width="44" height="6" rx="3" fill="#fc4f02"/>
  <rect x="130" y="72" width="60" height="20" rx="3" fill="#fc4f02"/>
  <rect x="130" y="98" width="36" height="4" rx="2" fill="#fbd5b5"/>
  <circle cx="132" cy="118" r="3" fill="#fc4f02"/>
  <rect x="142" y="115" width="56" height="3" rx="1.5" fill="#fc4f02" opacity="0.5"/>
  <circle cx="132" cy="132" r="3" fill="#fc4f02"/>
  <rect x="142" y="129" width="60" height="3" rx="1.5" fill="#fc4f02" opacity="0.5"/>
  <circle cx="132" cy="146" r="3" fill="#fc4f02"/>
  <rect x="142" y="143" width="50" height="3" rx="1.5" fill="#fc4f02" opacity="0.5"/>
  <circle cx="132" cy="160" r="3" fill="#fc4f02"/>
  <rect x="142" y="157" width="56" height="3" rx="1.5" fill="#fc4f02" opacity="0.5"/>
  <rect x="130" y="178" width="60" height="22" rx="11" fill="#fc4f02"/>
  <rect x="222" y="55" width="84" height="140" rx="10" fill="#ffffff" stroke="#fed7aa" stroke-width="2"/>
  <rect x="236" y="68" width="44" height="6" rx="3" fill="#fed7aa"/>
  <rect x="236" y="84" width="56" height="16" rx="3" fill="#fbd5b5"/>
  <rect x="236" y="112" width="60" height="3" rx="1.5" fill="#fbd5b5"/>
  <rect x="236" y="122" width="50" height="3" rx="1.5" fill="#fbd5b5"/>
  <rect x="236" y="132" width="56" height="3" rx="1.5" fill="#fbd5b5"/>
  <rect x="236" y="142" width="44" height="3" rx="1.5" fill="#fbd5b5"/>
  <rect x="236" y="168" width="56" height="18" rx="6" fill="#fed7aa"/>
  <circle cx="105" cy="40" r="2.5" fill="#fda300"/>
  <circle cx="220" cy="35" r="2" fill="#fda300"/>
  <circle cx="160" cy="218" r="2" fill="#fda300"/>
</svg>
