<svg xmlns="http://www.w3.org/2000/svg" width="320" height="220" viewBox="0 0 320 220">
  <ellipse cx="160" cy="200" rx="110" ry="8" fill="#fbd5b5" opacity="0.5"/>
  <rect x="36" y="30" width="100" height="160" rx="14" fill="#ffffff" stroke="#fed7aa" stroke-width="2" opacity="0.7"/>
  <rect x="50" y="50" width="40" height="6" rx="3" fill="#fed7aa" opacity="0.6"/>
  <rect x="50" y="68" width="72" height="36" rx="6" fill="#fff7ed" opacity="0.6"/>
  <rect x="50" y="115" width="72" height="20" rx="4" fill="#fed7aa" opacity="0.4"/>
  <rect x="50" y="145" width="72" height="20" rx="4" fill="#fed7aa" opacity="0.4"/>
  <rect x="80" y="50" width="200" height="140" rx="14" fill="#ffffff" stroke="#fc4f02" stroke-width="2.5"/>
  <circle cx="115" cy="92" r="22" fill="#fed7aa"/>
  <circle cx="115" cy="86" r="8" fill="#fc4f02"/>
  <path d="M99 105 Q115 96 131 105 L131 110 L99 110 Z" fill="#fc4f02"/>
  <rect x="148" y="78" width="100" height="10" rx="3" fill="#fed7aa"/>
  <rect x="148" y="92" width="70" height="6" rx="2" fill="#fbd5b5"/>
  <circle cx="262" cy="83" r="8" fill="#16a34a"/>
  <path d="M257 83 L261 87 L267 79" stroke="#ffffff" stroke-width="2" stroke-linecap="round" stroke-linejoin="round" fill="none"/>
  <rect x="96" y="128" width="168" height="16" rx="4" fill="#fff7ed" stroke="#fc4f02" stroke-width="1.5" stroke-dasharray="4 3"/>
  <rect x="96" y="152" width="168" height="16" rx="4" fill="#fff7ed" stroke="#fed7aa" stroke-width="1.5" stroke-dasharray="4 3"/>
  <g transform="translate(252, 116) rotate(45)">
    <rect x="-2" y="0" width="6" height="28" fill="#fc4f02"/>
    <rect x="-2" y="0" width="6" height="6" fill="#1f2937"/>
    <polygon points="-2,28 1,34 4,28" fill="#fda300"/>
  </g>
  <circle cx="290" cy="40" r="3" fill="#fda300"/>
  <circle cx="270" cy="20" r="2" fill="#fda300"/>
  <circle cx="20" cy="180" r="2" fill="#fda300"/>
</svg>
