<svg xmlns="http://www.w3.org/2000/svg" viewBox="0 0 150 150" width="150" height="150">
  <defs>
    <linearGradient id="qIcG1" gradientUnits="userSpaceOnUse" x1="-50.8359" y1="25.8894" x2="244.7039" y2="288.9437">
      <stop offset="0" stop-color="#FC4F02"/>
      <stop offset="0.2222" stop-color="#FC6401"/>
      <stop offset="0.7393" stop-color="#FD9200"/>
      <stop offset="1" stop-color="#FDA300"/>
    </linearGradient>
    <linearGradient id="qIcG2" gradientUnits="userSpaceOnUse" x1="55.8321" y1="194.8492" x2="143.077" y2="77.8906">
      <stop offset="0" stop-color="#FC4F02"/>
      <stop offset="0.2222" stop-color="#FC6401"/>
      <stop offset="0.7393" stop-color="#FD9200"/>
      <stop offset="1" stop-color="#FDA300"/>
    </linearGradient>
    <linearGradient id="qIcG3" gradientUnits="userSpaceOnUse" x1="18.8577" y1="13.865" x2="192.0829" y2="129.5592">
      <stop offset="0" stop-color="#FC4F02"/>
      <stop offset="0.2222" stop-color="#FC6401"/>
      <stop offset="0.7393" stop-color="#FD9200"/>
      <stop offset="1" stop-color="#FDA300"/>
    </linearGradient>
  </defs>
  <polygon fill="url(#qIcG1)" points="69.3,99.7 31.6,122.1 0,104.3 0,58.2 28.1,75 29.4,75.8"/>
  <polyline fill="url(#qIcG2)" points="147.4,98.7 147.4,147.1 110.5,125 109.4,124.3 110.5,125 73.4,146.2 71.3,147.4 71.3,99.1 108.6,76.9"/>
  <polygon fill="url(#qIcG3)" points="150,49.9 109.4,74 108.9,74.3 108.6,74.5 68.1,50.3 68.1,50.3 29.4,72.4 29.4,25.2 68.8,2.6 109.8,26.5"/>
</svg>
